<?xml version="1.0" encoding="utf-8"?>
<svg version="1.1" xmlns="http://www.w3.org/2000/svg" xmlns:xlink="http://www.w3.org/1999/xlink" x="0px" y="0px" viewBox="0 0 1000 1000" enable-background="new 0 0 1000 1000" xml:space="preserve">
<g><path d="M955,780H45c-19.3,0-35,15.8-35,35s15.8,35,35,35h910c19.3,0,35-15.8,35-35S974.3,780,955,780z"/><path d="M955,465H45c-19.3,0-35,15.8-35,35c0,19.3,15.8,35,35,35h910c19.3,0,35-15.8,35-35C990,480.8,974.3,465,955,465z"/><path d="M45,220h910c19.3,0,35-15.8,35-35s-15.8-35-35-35H45c-19.3,0-35,15.8-35,35S25.8,220,45,220z"/></g>
</svg>