<svg height="464pt" viewBox="-16 0 464 464" width="464pt" xmlns="http://www.w3.org/2000/svg"><path d="m432 200h-28.6875l26.34375-26.34375-11.3125-11.3125-45.007812 45.007812-5.449219-32.671874-15.773438 2.640624 7.320313 43.9375-53.089844 53.085938 11.3125 11.3125 69.65625-69.65625h44.6875zm0 0" fill="#b24018"/><path d="m79.886719 177.320312-15.773438-2.640624-5.449219 32.671874-45.007812-45.007812-11.3125 11.3125 26.34375 26.34375h-28.6875v16h44.6875l69.65625 69.65625 11.3125-11.3125-53.089844-53.085938zm0 0" fill="#b24018"/><path d="m280 440c0-30.929688 25.070312-56 56-56s56 25.070312 56 56zm0 0" fill="#d0dbe9"/><path d="m40 440c0-30.929688 25.070312-56 56-56s56 25.070312 56 56zm0 0" fill="#d0dbe9"/><path d="m344 328c0 70.691406-57.308594 128-128 128s-128-57.308594-128-128 57.308594-128 128-128 128 57.308594 128 128zm0 0" fill="#cceefa"/><path d="m296 152c0 44.183594-35.816406 80-80 80s-80-35.816406-80-80 35.816406-80 80-80 80 35.816406 80 80zm0 0" fill="#cceefa"/><path d="m232 304c0 8.835938-7.164062 16-16 16s-16-7.164062-16-16 7.164062-16 16-16 16 7.164062 16 16zm0 0" fill="#2f70a9"/><path d="m232 176c0 8.835938-7.164062 16-16 16s-16-7.164062-16-16 7.164062-16 16-16 16 7.164062 16 16zm0 0" fill="#ec7259"/><path d="m232 368c0 8.835938-7.164062 16-16 16s-16-7.164062-16-16 7.164062-16 16-16 16 7.164062 16 16zm0 0" fill="#2f70a9"/><path d="m152 0h128v82.03125h-128zm0 0" fill="#f8ac01"/><path d="m152 41.015625h128v41.015625h-128zm0 0" fill="#b24018"/><path d="m95.199219 464c67.507812-63.714844 172.894531-64.042969 240.800781-.753906zm0 0" fill="#d0dbe9"/><path d="m176 136h16v16h-16zm0 0"/><path d="m240 136h16v16h-16zm0 0"/><path d="m264 232h48v72h-48zm0 0" fill="#32ce9e"/><path d="m120 192h192v48h-192zm0 0" fill="#4d5f88"/><path d="m128 72h176v8.273438c0 13.101562-10.625 23.726562-23.726562 23.726562h-128.546876c-13.101562 0-23.726562-10.625-23.726562-23.726562zm0 0" fill="#ffc215"/></svg>